<svg viewBox="0 0 86 86" version="1.1" xmlns="http://www.w3.org/2000/svg" style="fill-rule:evenodd;clip-rule:evenodd;stroke-linejoin:round;stroke-miterlimit:2;">
<path d="M43,2c22.628,0 41,18.371 41,41c0,22.628 -18.372,41 -41,41c-22.629,0 -41,-18.372 -41,-41c0,-22.629 18.371,-41 41,-41Zm0,2c-21.525,0 -39,17.475 -39,39c0,21.525 17.475,39 39,39c21.525,0 39,-17.475 39,-39c0,-21.525 -17.475,-39 -39,-39Zm-3.119,39l-20.977,-20.977l2.829,-2.828l20.976,20.976l19.62,-19.62l2.829,2.829l-43.425,43.425l-2.829,-2.829l20.977,-20.976Zm27.214,20.976l-2.828,2.829l-19.3,-19.3l2.829,-2.828l19.299,19.299Z" style="fill:#b57f51;"/>
</svg>